Coordinates
version=1
nRows=9
nColumns=63
inDegrees=yes

Units are S.I. units (second, meters, Newtons, ...)
If the header above contains a line with 'inDegrees', this indicates whether rotational values are in degrees (yes) or radians (no).

endheader
time	pelvis_tilt	pelvis_list	pelvis_rotation	pelvis_tx	pelvis_ty	pelvis_tz	hip_flexion_r	hip_adduction_r	hip_rotation_r	knee_angle_r	knee_angle_r_beta	ankle_angle_r	subtalar_angle_r	mtp_angle_r	hip_flexion_l	hip_adduction_l	hip_rotation_l	knee_angle_l	knee_angle_l_beta	ankle_angle_l	subtalar_angle_l	mtp_angle_l	L5_S1_Flex_Ext	L5_S1_Lat_Bending	L5_S1_axial_rotation	L4_L5_Flex_Ext	L4_L5_Lat_Bending	L4_L5_axial_rotation	L3_L4_Flex_Ext	L3_L4_Lat_Bending	L3_L4_axial_rotation	L2_L3_Flex_Ext	L2_L3_Lat_Bending	L2_L3_axial_rotation	L1_L2_Flex_Ext	L1_L2_Lat_Bending	L1_L2_axial_rotation	L1_T12_Flex_Ext	L1_T12_Lat_Bending	L1_T12_axial_rotation	Abs_r3	Abs_r2	Abs_r1	Abs_t1	Abs_t2	neck_flexion	neck_bending	neck_rotation	arm_flex_r	arm_add_r	arm_rot_r	elbow_flex_r	pro_sup_r	wrist_flex_r	wrist_dev_r	arm_flex_l	arm_add_l	arm_rot_l	elbow_flex_l	pro_sup_l	wrist_flex_l	wrist_dev_l
5.066667	-1.167547	-7.804401	93.681584	0.238361	0.831952	0.724682	7.984906	-2.314860	-15.713218	13.105257	0.228730	25.915938	0.899269	0.000000	9.926732	-2.535435	7.678623	14.685056	0.256303	23.954481	-4.556934	0.000000	-0.904947	-0.526679	-0.986723	-1.680576	-0.700483	-1.048393	-1.486737	-1.280567	-1.048393	-1.034263	-1.280567	-0.863382	-0.840333	-1.074004	-0.801712	-0.517086	-0.815826	-0.740042	-6.463943	-5.957897	-5.487856	0.000000	0.000000	-10.376900	1.471313	10.256405	71.385090	-15.937853	19.647759	126.131835	87.731263	23.496125	33.228501	-4.433575	-13.355741	31.491168	44.144640	88.456873	-16.064099	12.474460
5.083333	-1.092607	-7.822645	93.538215	0.238444	0.831940	0.724362	8.037810	-2.202454	-15.304116	13.098594	0.228614	25.799451	0.434345	0.000000	9.882424	-2.626861	7.575933	14.670220	0.256044	24.046131	-4.613469	0.000000	-0.904299	-0.518553	-0.937038	-1.679374	-0.689676	-0.995602	-1.485673	-1.260810	-0.995602	-1.033524	-1.260810	-0.819908	-0.839732	-1.057434	-0.761343	-0.516717	-0.803239	-0.702778	-6.459319	-5.865978	-5.211522	0.000000	0.000000	-10.228110	1.253002	9.797137	71.421779	-16.081196	19.649006	126.168197	87.760006	23.512448	33.212319	-4.204707	-13.348101	31.975611	43.970979	88.412023	-16.116988	12.414928
5.100000	-1.024718	-7.834935	93.412790	0.238509	0.831931	0.724147	8.087101	-2.100927	-14.928643	13.102614	0.228684	25.711664	0.070310	0.000000	9.844505	-2.702083	7.526473	14.659565	0.255858	24.097207	-4.742792	0.000000	-0.905217	-0.511104	-0.903608	-1.681079	-0.679768	-0.960084	-1.487181	-1.242697	-0.960084	-1.034573	-1.242697	-0.790657	-0.840585	-1.042242	-0.734182	-0.517241	-0.791699	-0.677706	-6.465876	-5.781706	-5.025599	0.000000	0.000000	-10.099221	1.023002	9.444324	71.472601	-16.154520	19.662368	126.191070	87.799652	23.606173	33.161700	-4.029838	-13.331974	32.304214	43.837891	88.369216	-16.104984	12.415143
5.116667	-0.968738	-7.841086	93.325180	0.238540	0.831922	0.724029	8.129066	-2.020267	-14.627595	13.119175	0.228973	25.666543	-0.154698	0.000000	9.816947	-2.751349	7.574171	14.655071	0.255779	24.105850	-4.963774	0.000000	-0.907795	-0.504928	-0.892327	-1.685866	-0.671555	-0.948097	-1.491417	-1.227683	-0.948097	-1.037519	-1.227683	-0.780786	-0.842979	-1.029650	-0.725015	-0.518714	-0.782134	-0.669245	-6.484290	-5.711850	-4.962853	0.000000	0.000000	-10.004423	0.793984	9.223867	71.536466	-16.141693	19.689287	126.191837	87.855693	23.766460	33.081938	-3.921140	-13.317841	32.489620	43.762063	88.325433	-16.098471	12.462393
5.133333	-0.933627	-7.849638	93.251034	0.238605	0.831903	0.723987	8.174805	-1.961598	-14.350871	13.144098	0.229408	25.660836	-0.291947	0.000000	9.807546	-2.787237	7.569199	14.656458	0.255803	24.116171	-5.081033	0.000000	-0.910163	-0.501926	-0.896546	-1.690264	-0.667562	-0.952581	-1.495307	-1.220383	-0.952581	-1.040225	-1.220383	-0.784478	-0.845177	-1.023527	-0.728444	-0.520067	-0.777483	-0.672410	-6.501203	-5.677887	-4.986322	0.000000	0.000000	-9.960747	0.605750	9.130637	71.601290	-16.061461	19.723790	126.177089	87.933845	23.941670	32.983067	-3.883619	-13.320790	32.543003	43.760041	88.283794	-16.111987	12.556897
5.150000	-0.923703	-7.864472	93.225238	0.238648	0.831865	0.724005	8.216734	-1.943283	-14.220683	13.169050	0.229843	25.718649	-0.228713	0.000000	9.820268	-2.785962	7.649947	14.660400	0.255872	24.088061	-5.253230	0.000000	-0.911669	-0.502281	-0.921906	-1.693061	-0.668033	-0.979526	-1.497782	-1.221245	-0.979526	-1.041947	-1.221245	-0.806668	-0.846576	-1.024250	-0.749049	-0.520928	-0.778033	-0.691430	-6.511963	-5.681898	-5.127367	0.000000	0.000000	-9.967246	0.462917	9.181601	71.659685	-15.902663	19.749055	126.129239	88.047453	24.156058	32.857144	-3.923591	-13.339927	32.439392	43.827112	88.254538	-16.072340	12.668464
5.166667	-0.928023	-7.892148	93.240301	0.238676	0.831792	0.724077	8.268096	-1.943888	-14.127694	13.194353	0.230285	25.813989	-0.126390	0.000000	9.862516	-2.768011	7.753244	14.666070	0.255971	24.054108	-5.382876	0.000000	-0.911209	-0.504164	-0.963221	-1.692206	-0.670539	-1.023423	-1.497025	-1.225825	-1.023423	-1.041420	-1.225825	-0.842819	-0.846148	-1.028092	-0.782617	-0.520665	-0.780951	-0.722416	-6.508673	-5.703209	-5.357148	0.000000	0.000000	-10.015285	0.351823	9.392919	71.725376	-15.697177	19.802484	126.043914	88.135656	24.238343	32.739359	-4.017532	-13.369981	32.252386	43.926611	88.234040	-16.049815	12.707122
5.183333	-0.962800	-7.929248	93.259396	0.238741	0.831700	0.724154	8.321006	-1.980455	-14.104134	13.211386	0.230582	25.950105	0.086596	0.000000	9.915875	-2.709136	7.955537	14.664894	0.255951	23.968928	-5.652727	0.000000	-0.908480	-0.510390	-1.004532	-1.687138	-0.678819	-1.067315	-1.492542	-1.240962	-1.067315	-1.038302	-1.240962	-0.878966	-0.843614	-1.040787	-0.816182	-0.519105	-0.790594	-0.753399	-6.489181	-5.773632	-5.586906	0.000000	0.000000	-10.090580	0.303514	9.661415	71.752399	-15.463867	19.797638	125.940901	88.243119	24.308873	32.617819	-4.129110	-13.427044	32.044322	44.063946	88.219260	-15.999309	12.790104
5.200000	-1.017031	-7.978047	93.316052	0.238786	0.831579	0.724206	8.371441	-2.043978	-14.163871	13.217580	0.230690	26.114695	0.357127	0.000000	9.987283	-2.622471	8.218308	14.660275	0.255870	23.867058	-5.955880	0.000000	-0.902782	-0.518570	-1.053629	-1.676557	-0.689699	-1.119481	-1.483181	-1.260852	-1.119481	-1.031790	-1.260852	-0.921926	-0.838323	-1.057469	-0.856074	-0.515850	-0.803265	-0.790222	-6.448482	-5.866171	-5.859970	0.000000	0.000000	-10.190255	0.301784	10.056890	71.755255	-15.194943	19.785272	125.796638	88.261398	24.210558	32.512840	-4.273213	-13.487459	31.778001	44.230594	88.206409	-15.932897	12.900846
